<svg width="15" height="15" viewBox="0 0 15 15" fill="none" xmlns="http://www.w3.org/2000/svg">
<path fill-rule="evenodd" clip-rule="evenodd" d="M6.02295 0.102608C1.80864 0.985406 -0.819907 5.1635 0.232004 9.30725C0.367725 9.84199 0.581923 10.4822 0.708001 10.7301C2.36445 13.9851 5.91278 15.6399 9.37175 14.7704C10.3203 14.532 11.7832 13.7529 12.5003 13.1045C14.1588 11.6045 15 9.71517 15 7.48998C15 4.02204 12.7905 1.15836 9.37175 0.195491C8.6118 -0.0185704 6.83656 -0.0677797 6.02295 0.102608ZM9.65673 0.699889C12.8007 1.72478 14.8671 4.76685 14.6181 8.00401C14.3199 11.8804 10.9266 14.8389 7.06973 14.5852C3.30823 14.3378 0.395526 11.2413 0.395526 7.48998C0.395526 4.69375 1.9619 2.25675 4.55762 1.01421C5.60102 0.51484 6.39359 0.362496 7.73038 0.404427C8.58882 0.431389 9.04974 0.502025 9.65673 0.699889Z" fill="#585858"/>
</svg>
