<svg width="18" height="14" viewBox="0 0 18 14" fill="none" xmlns="http://www.w3.org/2000/svg">
<path fill-rule="evenodd" clip-rule="evenodd" d="M8.74167 0.159338C8.65 0.288972 6.98889 2.88034 5.05023 5.91785C3.11156 8.95536 1.18222 11.977 0.762777 12.6325C0.343221 13.2881 0 13.8647 0 13.9139C0 13.9654 3.78856 14.0018 8.94444 13.9999C13.8639 13.9981 17.8889 13.9804 17.8889 13.9608C17.8889 13.9234 17.7249 13.6651 14.0554 7.92612C12.8196 5.99316 11.2192 3.48533 10.499 2.35317C8.80223 -0.314413 8.94789 -0.132464 8.74167 0.159338ZM9.46711 1.52476C9.73711 1.95282 11.5674 4.82063 13.5346 7.8979C15.5017 10.9751 17.1111 13.5168 17.1111 13.5462C17.1111 13.5755 13.4361 13.5995 8.94444 13.5995C3.27289 13.5995 0.777778 13.567 0.777778 13.4931C0.777778 13.4347 1.59289 12.1131 2.58911 10.556C3.58533 8.99913 5.39789 6.15663 6.61689 4.23934C7.83589 2.32204 8.86556 0.751878 8.90478 0.74997C8.94411 0.748062 9.19722 1.0967 9.46711 1.52476Z" fill="rgb(88, 88, 88)"/>
</svg>
