<svg width="22" height="14" viewBox="0 0 22 14" fill="none" xmlns="http://www.w3.org/2000/svg">
<path d="M6.30469 6.42383V7.44336H0.457031V6.42383H6.30469ZM3.92578 3.93359V10.1445H2.8418V3.93359H3.92578Z" fill="white"/>
<path d="M18.8001 3.09961H12.475C11.65 3.09961 10 3.64962 10 5.29964C10 6.94966 11.65 7.49967 12.475 7.49967H18.5251C19.3501 7.49967 21.0001 8.04967 21.0001 9.69969C21.0001 11.3497 19.3501 11.8997 18.5251 11.8997H12.2" stroke="white" stroke-linecap="round" stroke-linejoin="round"/>
<path d="M19.8998 4.20003C20.1916 4.20003 20.4714 4.08413 20.6776 3.87784C20.8839 3.67155 20.9998 3.39176 20.9998 3.10001C20.9998 2.80827 20.8839 2.52848 20.6776 2.32219C20.4714 2.11589 20.1916 2 19.8998 2C19.6081 2 19.3283 2.11589 19.122 2.32219C18.9157 2.52848 18.7998 2.80827 18.7998 3.10001C18.7998 3.39176 18.9157 3.67155 19.122 3.87784C19.3283 4.08413 19.6081 4.20003 19.8998 4.20003V4.20003Z" stroke="white" stroke-linejoin="round"/>
<path d="M11.1 13.0008C11.3918 13.0008 11.6715 12.8849 11.8778 12.6786C12.0841 12.4723 12.2 12.1925 12.2 11.9008C12.2 11.6091 12.0841 11.3293 11.8778 11.123C11.6715 10.9167 11.3918 10.8008 11.1 10.8008C10.8083 10.8008 10.5285 10.9167 10.3222 11.123C10.1159 11.3293 10 11.6091 10 11.9008C10 12.1925 10.1159 12.4723 10.3222 12.6786C10.5285 12.8849 10.8083 13.0008 11.1 13.0008V13.0008Z" stroke="white" stroke-linejoin="round"/>
</svg>
