<svg xmlns="http://www.w3.org/2000/svg" width="16" height="16" viewBox="0 0 16 16" fill="none">
    <path fill-rule="evenodd" clip-rule="evenodd" d="M10.5477 0.164969C10.5999 0.112676 10.6618 0.0711877 10.7301 0.0428795C10.7983 0.0145714 10.8714 0 10.9453 0C11.0191 0 11.0923 0.0145714 11.1605 0.0428795C11.2287 0.0711877 11.2907 0.112676 11.3428 0.164969L15.835 4.65718C15.8873 4.70934 15.9288 4.7713 15.9571 4.83952C15.9854 4.90774 16 4.98088 16 5.05474C16 5.1286 15.9854 5.20173 15.9571 5.26995C15.9288 5.33817 15.8873 5.40014 15.835 5.4523L13.699 7.58834L12.768 11.309C12.6972 11.5923 12.5539 11.8524 12.3523 12.0636C12.1507 12.2749 11.8977 12.4301 11.618 12.514L0 16L3.48595 4.38091C3.56998 4.10156 3.7251 3.84882 3.93614 3.64743C4.14718 3.44603 4.40689 3.3029 4.68986 3.23202L8.41054 2.30214L10.5477 0.164969ZM8.52621 3.4308L4.96277 4.32138C4.86817 4.34499 4.78136 4.39282 4.71086 4.46017C4.64037 4.52751 4.58862 4.61205 4.56071 4.70547L1.67447 14.3244L11.2957 11.4382C11.3885 11.41 11.4725 11.3583 11.5394 11.288C11.6063 11.2178 11.6539 11.1314 11.6775 11.0372L12.5692 7.47267L8.52621 3.42968V3.4308Z" fill="white"/>
    <path fill-rule="evenodd" clip-rule="evenodd" d="M1.77236 14.2951L7.5763 9.54689C7.79842 9.54689 8.01555 9.48102 8.20023 9.35762C8.38492 9.23421 8.52886 9.05882 8.61386 8.85361C8.69886 8.6484 8.7211 8.42259 8.67777 8.20474C8.63444 7.98689 8.52748 7.78678 8.37042 7.62972C8.21335 7.47265 8.01324 7.36569 7.79539 7.32236C7.57754 7.27903 7.35174 7.30127 7.14652 7.38627C6.94131 7.47127 6.76592 7.61521 6.64251 7.7999C6.51911 7.98458 6.45325 8.20172 6.45325 8.42383L1.70498 14.2278L1.67578 14.3243L1.77236 14.2951Z" fill="white"/>
</svg>